<svg width="199" height="62" viewBox="0 0 199 62" fill="none" xmlns="http://www.w3.org/2000/svg">
<path d="M39.6782 42.9389C39.9967 41.7207 40.3059 40.6336 40.3528 40.3431C40.1654 39.6309 39.978 38.9093 39.5658 37.5317C47.1533 24.1204 56.1248 11.5412 66.3333 0C55.8961 10.7769 47.1454 20.9634 38.7226 34.5798C38.3103 35.2358 37.8981 35.9105 37.4952 36.5946C36.8394 37.6911 36.2023 38.7875 35.5652 39.8839L35.1717 40.568C34.0005 42.6203 32.8762 44.682 31.7707 46.7811C29.9063 50.3108 28.3665 54.0026 27.1704 57.8111L28.2291 61.672C29.6378 57.577 31.2865 53.5685 33.1667 49.6675L33.5508 50.4828L33.4571 50.6796C31.6286 54.3246 30.0296 58.0804 28.6695 61.925L33.354 60.36L32.4171 58.1297L32.7451 57.4268C33.1667 58.364 33.5321 59.2355 33.9256 60.2382C34.8625 60.6505 37.6732 61.9719 37.6732 61.9719C37.008 60.0976 35.4434 56.0586 34.6189 54.2781C34.6189 54.2125 34.7875 53.8658 34.8531 53.7252L34.9749 53.4722C36.3615 56.4148 37.186 59.2449 38.1136 61.6439L39.2847 57.7829C38.1632 54.3025 36.7497 50.9231 35.0592 47.6808L34.5814 46.7437C34.5814 46.7437 34.8718 46.1252 34.8812 46.1439L34.9562 46.0033C36.3147 49.0865 37.7107 51.7947 38.7881 54.9997L39.6595 52.0478C38.8635 48.9758 37.7878 45.9832 36.4459 43.1076C36.5395 42.9296 36.6988 42.6297 36.7457 42.5266C37.5233 44.3165 38.226 46.0689 38.8912 47.8776C39.0211 48.2588 39.1305 48.6467 39.2191 49.0396L39.9124 46.6874C39.5794 44.3508 39.0048 42.055 38.1979 39.8371C38.3103 39.6215 38.3384 39.5278 38.4508 39.3216C38.9685 40.4878 39.3793 41.6985 39.6782 42.9389ZM29.494 29.8192L29.4097 29.9973C29.4565 29.9036 29.494 29.8192 29.5315 29.7255L29.494 29.8192ZM29.7282 29.3319V29.4069V29.3132V29.3319ZM27.1142 48.9365L26.4209 46.5843C26.4756 46.0886 26.5633 45.5971 26.6832 45.1131C31.1148 28.1605 42.3578 15.7343 54.3409 3.12062C42.6576 16.5215 34.1129 31.3561 27.4421 47.7932C27.3016 48.1587 27.2173 48.646 27.1142 48.9365ZM27.6389 55.0372L26.702 52.0852C27.1537 49.9667 27.8225 47.9004 28.6976 45.919C36.5208 29.1632 47.4358 14.994 60.3371 1.59311C46.792 17.0416 35.9011 34.6293 28.1073 53.6409C27.9209 54.0956 27.7644 54.562 27.6389 55.0372ZM26.1492 40.2962C26.3052 39.3488 26.5116 38.4103 26.7676 37.4849C19.1739 24.092 10.2027 11.5289 0 0C10.4372 10.7769 19.1879 20.9634 27.6108 34.5892L27.7138 34.2893C27.8544 33.8395 28.0137 33.3522 28.1823 32.9492C21.549 21.6569 14.6064 11.1049 5.99623 1.55562C15.103 10.7488 22.008 19.8201 29.1754 30.494V30.4377C29.4003 29.9223 29.6439 29.4163 29.8968 28.9102C24.2754 19.2579 19.5908 11.4797 11.9363 3.12062C19.8625 11.1799 25.2966 17.2712 31.2741 26.2863C31.3678 26.1176 31.6863 25.5553 31.8925 25.2086C27.3953 17.3274 23.6664 11.2455 17.6889 4.68561C24.3597 11.2455 28.3697 15.5 33.1667 23.0907C33.2323 22.9782 33.2416 22.9689 33.1667 23.0907C33.3634 22.7814 33.5602 22.4722 33.7663 22.1536L33.504 22.5472C38.2541 15.1533 42.161 11.0674 48.6444 4.68561C42.6576 11.2455 38.9474 17.3086 34.4409 25.1898C33.9537 26.0801 33.504 26.9704 32.998 27.87C32.4078 28.9946 31.8363 30.1191 31.2835 31.253C29.881 34.2335 28.6302 37.2831 27.5358 40.39C27.5358 40.39 27.1704 41.4114 26.7301 42.9296C26.4396 41.6926 26.2335 40.821 26.1492 40.2962ZM27.7045 34.2706C27.6753 34.3472 27.6502 34.4254 27.6295 34.5048L27.7045 34.2706ZM32.7638 28.2823L32.642 28.526L32.7638 28.2823Z" fill="url(#paint0_linear)"/>
<path d="M141.192 36.2947C141.295 37.1569 141.192 37.3443 140.255 37.3443H138.382C137.782 37.3443 137.613 37.1756 137.548 36.5665C137.454 35.7699 137.37 34.9734 137.285 34.1768C137.117 32.6306 136.789 29.6318 136.648 28.5541C136.641 28.5251 136.625 28.4989 136.604 28.4783C136.582 28.4578 136.555 28.4438 136.525 28.4379C136.496 28.432 136.466 28.4345 136.438 28.4451C136.41 28.4558 136.385 28.474 136.367 28.4979C136.039 28.9852 135.749 29.435 135.43 29.8473C133.875 32.2557 132.338 34.6735 130.746 37.0819C130.249 37.8503 129.687 37.841 129.219 37.0819C127.673 34.6641 124.581 29.9035 123.71 28.6478C123.692 28.623 123.668 28.6039 123.64 28.5932C123.611 28.5824 123.581 28.5805 123.551 28.5876C123.522 28.5947 123.495 28.6105 123.475 28.6329C123.455 28.6554 123.442 28.6834 123.438 28.7134C123.316 29.6505 123.204 30.5127 123.101 31.3561C122.894 33.0804 122.707 34.8047 122.482 36.529C122.379 37.2881 122.276 37.3537 121.545 37.3537H119.568C119.006 37.3537 118.838 37.185 118.894 36.6414C118.978 35.7043 119.1 34.7203 119.222 33.7551C119.472 31.7372 119.728 29.7224 119.99 27.7107C120.299 25.3023 120.618 22.9032 120.927 20.4948C120.942 20.1797 120.983 19.8662 121.049 19.5577C121.066 19.4799 121.105 19.4087 121.162 19.3523C121.218 19.2959 121.289 19.2566 121.367 19.2391C121.487 19.2346 121.605 19.2606 121.712 19.3147C121.818 19.3688 121.909 19.4492 121.976 19.5483C122.122 19.7348 122.254 19.9321 122.37 20.1387C122.641 20.5417 122.885 20.9447 123.147 21.3476C125.327 24.7712 127.513 28.1886 129.706 31.5997C129.968 32.0214 130.071 32.0214 130.334 31.5997L133.716 26.3237C135.13 24.1028 136.526 21.8724 137.969 19.6608C138.055 19.5108 138.178 19.3851 138.325 19.2953C138.4 19.2534 138.484 19.2314 138.569 19.2314C138.654 19.2314 138.738 19.2534 138.813 19.2953C138.883 19.3523 138.942 19.4233 138.984 19.504C139.026 19.5847 139.05 19.6732 139.056 19.7639C139.103 20.1856 139.15 20.6167 139.206 21.0477C139.534 23.6998 139.853 26.3518 140.143 29.0039C140.536 31.4498 140.864 33.8676 141.192 36.2947ZM95.8177 36.604C96.0519 37.0444 95.8833 37.3349 95.3586 37.3443H92.8383C92.6605 37.3636 92.4812 37.3259 92.3263 37.2366C92.1714 37.1473 92.0488 37.0111 91.9763 36.8476C91.536 35.9761 91.0394 35.1046 90.6647 34.2143C90.606 34.0367 90.4888 33.8843 90.3322 33.7821C90.1755 33.68 89.9888 33.6341 89.8027 33.652C87.6666 33.652 85.5304 33.652 83.3942 33.652C83.2183 33.6275 83.0392 33.6632 82.8861 33.7533C82.733 33.8435 82.6149 33.9829 82.551 34.1487C82.1763 34.9827 81.6141 36.0229 81.2112 36.8476C81.0332 37.2412 80.7896 37.3537 80.1994 37.3443H77.8852C77.3043 37.3443 77.1263 37.0631 77.3886 36.5102C77.7634 35.7512 78.1756 35.0015 78.5598 34.2518C78.6722 34.0456 78.7753 33.8394 78.8783 33.6333C78.7468 33.5931 78.6257 33.5243 78.5237 33.432C78.4216 33.3397 78.3412 33.226 78.2881 33.0991C78.0445 32.5743 77.6884 31.909 77.3512 31.3186C77.0139 30.7282 77.2762 30.6251 77.8009 30.6157C78.3255 30.6064 79.6747 30.6157 80.3868 30.6157C81.3174 28.8352 82.2543 27.0516 83.1975 25.2648L86.1956 19.5765C86.4392 19.1079 86.7765 19.0798 87.0201 19.5765C87.7321 20.8791 88.4161 22.2004 89.1 23.5217L92.9414 31.0187C93.8689 32.7992 94.8527 34.6735 95.8177 36.604ZM89.2031 30.0441C88.7065 29.0133 88.2662 27.9824 87.7228 26.961C87.5635 26.6236 87.273 26.1082 87.0857 25.7615C87.0662 25.7263 87.0377 25.697 87.0031 25.6766C86.9685 25.6562 86.9291 25.6454 86.8889 25.6454C86.8487 25.6454 86.8093 25.6562 86.7747 25.6766C86.7401 25.697 86.7116 25.7263 86.6922 25.7615C86.5528 25.9829 86.4246 26.2113 86.308 26.4456C85.7365 27.6357 85.1556 28.8258 84.5935 30.016C84.3593 30.5314 84.4436 30.6439 85.0338 30.6439C86.2893 30.6439 87.5541 30.6439 88.7815 30.6439C89.3717 30.6064 89.4279 30.4939 89.2031 29.9879V30.0441ZM94.328 37.3818H93.1381H94.328ZM116.177 36.604C116.402 37.0444 116.233 37.3349 115.718 37.3443H113.197C113.02 37.3636 112.84 37.3259 112.685 37.2366C112.53 37.1473 112.408 37.0111 112.335 36.8476C111.886 35.9761 111.399 35.1046 111.014 34.2143C110.958 34.0374 110.842 33.8853 110.687 33.7831C110.532 33.6808 110.347 33.6346 110.162 33.652C108.026 33.652 105.889 33.652 103.753 33.652C103.576 33.6269 103.396 33.6623 103.241 33.7524C103.086 33.8425 102.966 33.9821 102.901 34.1487C102.526 34.9827 101.964 36.0229 101.57 36.8476C101.383 37.2412 101.149 37.3537 100.549 37.3443H98.2443C97.6634 37.3443 97.4854 37.0631 97.7477 36.5102C98.1131 35.7512 98.5254 35.0015 98.9189 34.2518L99.2374 33.6333C99.1059 33.5931 98.9848 33.5243 98.8828 33.432C98.7807 33.3397 98.7003 33.226 98.6472 33.0991C98.3942 32.5743 98.0475 31.909 97.7102 31.3186C97.373 30.7282 97.6353 30.6251 98.1506 30.6157C98.6659 30.6064 100.024 30.6157 100.746 30.6157C101.683 28.8352 102.62 27.0547 103.557 25.2648L106.508 19.5671C106.751 19.0985 107.079 19.0704 107.332 19.5671C108.044 20.8697 108.728 22.191 109.403 23.5124C110.696 25.9957 111.97 28.4791 113.254 31.0093L116.177 36.604ZM109.253 30.0441C108.766 29.0133 108.316 27.9824 107.782 26.961C107.623 26.6236 107.332 26.1082 107.145 25.7615C107.124 25.7265 107.095 25.6975 107.059 25.6774C107.024 25.6573 106.984 25.6467 106.944 25.6467C106.903 25.6467 106.863 25.6573 106.828 25.6774C106.792 25.6975 106.763 25.7265 106.742 25.7615C106.611 25.9864 106.452 26.2675 106.367 26.4456C105.796 27.6357 105.215 28.8258 104.653 30.016C104.419 30.5314 104.503 30.6439 105.093 30.6439C106.349 30.6439 107.613 30.6439 108.841 30.6439C109.422 30.6064 109.478 30.4939 109.244 29.9879L109.253 30.0441ZM114.387 37.3818H113.197C113.02 37.4011 112.84 37.3634 112.685 37.2741C112.53 37.1848 112.408 37.0486 112.335 36.8851L114.387 37.3818ZM162.526 36.6414C162.751 37.0819 162.582 37.3724 162.067 37.3818H159.537C159.36 37.3982 159.182 37.3593 159.027 37.2704C158.873 37.1814 158.75 37.0468 158.675 36.8851C158.235 36.0136 157.785 35.142 157.363 34.2518C157.307 34.0749 157.191 33.9228 157.036 33.8205C156.881 33.7183 156.696 33.6721 156.511 33.6895C154.375 33.6895 152.229 33.6895 150.093 33.6895C149.917 33.6649 149.738 33.7006 149.585 33.7908C149.432 33.881 149.314 34.0203 149.25 34.1862C148.875 35.0202 148.313 36.0604 147.919 36.8851C147.732 37.2787 147.498 37.3911 146.898 37.3818H144.593C144.012 37.3818 143.834 37.1006 144.097 36.5477C144.462 35.7887 144.874 35.039 145.268 34.2893L145.586 33.6708C145.455 33.6305 145.334 33.5618 145.232 33.4695C145.13 33.3772 145.049 33.2635 144.996 33.1366C144.743 32.6118 144.397 31.9465 144.106 31.3561C143.816 30.7657 144.031 30.6626 144.546 30.6532C145.062 30.6439 146.42 30.6532 147.142 30.6532C148.079 28.8727 149.016 27.0922 149.952 25.3023L152.904 19.6046C153.147 19.136 153.475 19.1079 153.728 19.6046C154.431 20.9072 155.115 22.2285 155.799 23.5498L159.649 31.0468L162.526 36.6414ZM155.602 30.0816C155.105 29.0508 154.665 28.0199 154.131 26.9985C153.972 26.6611 153.681 26.1457 153.494 25.7989C153.473 25.764 153.444 25.735 153.408 25.7149C153.373 25.6948 153.333 25.6842 153.293 25.6842C153.252 25.6842 153.212 25.6948 153.177 25.7149C153.141 25.735 153.112 25.764 153.091 25.7989C152.96 26.0239 152.801 26.305 152.707 26.483C152.135 27.6732 151.564 28.8633 151.002 30.0535C150.768 30.5689 150.852 30.6813 151.433 30.6813C152.682 30.6813 153.931 30.6813 155.18 30.6813C155.761 30.6064 155.827 30.4939 155.593 29.9879L155.602 30.0816ZM160.736 37.4193H159.537C159.36 37.4357 159.182 37.3968 159.027 37.3078C158.873 37.2189 158.75 37.0843 158.675 36.9226L160.736 37.4193ZM196.095 36.6789C196.32 37.1194 196.152 37.4099 195.636 37.4193H193.107C192.929 37.4371 192.75 37.3988 192.596 37.3097C192.441 37.2206 192.318 37.0852 192.245 36.9226C191.804 36.0511 191.308 35.1795 190.933 34.2893C190.876 34.1124 190.761 33.9603 190.606 33.858C190.451 33.7558 190.265 33.7096 190.08 33.727C187.932 33.727 185.792 33.727 183.663 33.727C183.487 33.7024 183.307 33.7381 183.154 33.8283C183.001 33.9185 182.883 34.0578 182.819 34.2237C182.445 35.0577 181.882 36.0979 181.489 36.9226C181.301 37.3162 181.058 37.4286 180.468 37.4193H178.153C177.582 37.4193 177.404 37.1381 177.666 36.5852C178.032 35.8261 178.444 35.0765 178.837 34.3268C178.94 34.1206 179.044 33.9144 179.156 33.7083C179.023 33.6692 178.9 33.6011 178.796 33.5087C178.692 33.4163 178.61 33.302 178.556 33.1741C178.313 32.6493 177.966 31.9839 177.666 31.3936C177.366 30.8032 177.591 30.7001 178.116 30.6907C178.641 30.6813 179.99 30.6907 180.711 30.6907L183.466 25.3023C184.45 23.428 185.424 21.5538 186.417 19.6046C186.661 19.136 186.989 19.1079 187.242 19.6046C187.944 20.9072 188.628 22.2285 189.312 23.5498L193.163 31.0468L196.095 36.6789ZM189.172 30.1191C188.675 29.0882 188.235 28.0574 187.701 27.0359C187.541 26.6986 187.251 26.1832 187.054 25.8364C187.035 25.8013 187.006 25.772 186.972 25.7516C186.937 25.7312 186.898 25.7204 186.857 25.7204C186.817 25.7204 186.778 25.7312 186.743 25.7516C186.709 25.772 186.68 25.8013 186.661 25.8364C186.529 26.0613 186.361 26.3425 186.276 26.5205C185.705 27.7107 185.133 28.9008 184.571 30.091C184.337 30.6064 184.421 30.7188 185.002 30.7188C186.267 30.7188 187.532 30.7188 188.75 30.7188C189.331 30.6064 189.396 30.4939 189.162 29.9879L189.172 30.1191ZM194.306 37.4567H193.097C192.92 37.4746 192.741 37.4363 192.586 37.3472C192.432 37.2581 192.309 37.1227 192.235 36.9601L194.306 37.4567ZM178.481 19.5296H176.017C175.823 19.5128 175.628 19.557 175.46 19.6561C175.292 19.7552 175.16 19.9043 175.08 20.0825C173.594 23.0813 172.101 26.0801 170.602 29.0789C170.386 29.5006 170.162 29.9129 169.918 30.3815C169.9 30.4169 169.872 30.4467 169.839 30.4675C169.805 30.4883 169.766 30.4993 169.726 30.4993C169.686 30.4993 169.647 30.4883 169.613 30.4675C169.579 30.4467 169.552 30.4169 169.534 30.3815L168.503 28.3385C167.154 25.6115 165.814 22.8845 164.446 20.1762C164.297 19.867 164.081 19.5296 163.734 19.5296H160.792C160.465 19.5296 160.38 19.7732 160.446 20.0544C160.493 20.228 160.563 20.3949 160.652 20.5511L164.756 28.4791C166.267 31.4154 167.782 34.3486 169.3 37.2787C169.553 37.766 169.852 37.766 170.152 37.2787C170.227 37.1475 177.648 22.8376 178.94 20.298C179.193 19.8201 179.137 19.5296 178.481 19.5296ZM78.1382 19.5296H76.3206C76.0234 19.4814 75.7187 19.5268 75.4484 19.6594C75.1782 19.792 74.9558 20.0054 74.8121 20.2699C73.744 22.1442 71.28 26.2394 70.6148 27.3171C70.5999 27.3423 70.5786 27.3633 70.5532 27.3778C70.5277 27.3924 70.4989 27.4 70.4695 27.4C70.4402 27.4 70.4114 27.3924 70.3859 27.3778C70.3605 27.3633 70.3392 27.3423 70.3243 27.3171L66.0614 20.0356C65.9736 19.8679 65.8372 19.7306 65.6699 19.642C65.5027 19.5533 65.3125 19.5174 65.1245 19.539H62.6604C62.5894 19.5464 62.5213 19.571 62.462 19.6107C62.4026 19.6503 62.3538 19.7038 62.3197 19.7665C62.2856 19.8292 62.2672 19.8992 62.2662 19.9706C62.2651 20.042 62.2815 20.1125 62.3137 20.1762C62.3137 20.2231 67.9352 29.435 68.4692 30.4096C68.6258 30.6969 68.7065 31.0195 68.7035 31.3467C68.7035 32.9679 68.7035 34.9921 68.7035 36.5384C68.7035 36.748 68.7861 36.9492 68.9334 37.0983C69.0807 37.2474 69.2809 37.3324 69.4905 37.3349H71.3643C71.4801 37.3419 71.5961 37.324 71.7044 37.2826C71.8128 37.2411 71.9111 37.177 71.9927 37.0945C72.0743 37.012 72.1373 36.913 72.1776 36.8042C72.2179 36.6953 72.2345 36.5792 72.2262 36.4634C72.2262 34.7578 72.2262 33.0523 72.2262 31.3467C72.2289 31.019 72.3126 30.6971 72.4698 30.4096C73.0133 29.4725 77.1544 22.669 78.6441 20.2137C78.8596 19.8107 78.6441 19.5296 78.1382 19.5296ZM198.625 16.5027L196.751 15.8936C196.161 15.7249 195.964 15.828 195.814 16.409C195.543 17.243 195.29 18.0864 195.027 18.9205C194.765 19.7545 194.54 20.4667 194.306 21.2445C194.072 22.0223 194.128 22.2379 194.98 22.5096C195.112 22.5565 195.243 22.5846 195.383 22.6221C195.561 22.6929 195.759 22.6902 195.935 22.6146C196.111 22.539 196.249 22.3968 196.32 22.2191L198.194 18.9017C198.494 18.3676 198.784 17.8147 199.065 17.2618C199.117 17.1859 199.146 17.0971 199.149 17.0055C199.152 16.9139 199.129 16.8233 199.083 16.744C199.037 16.6648 198.97 16.6001 198.889 16.5574C198.808 16.5147 198.716 16.4958 198.625 16.5027ZM82.0638 46.8561L83.2912 48.7303H81.9982L80.9208 47.1278H80.0588V48.7303H78.9533V43.6605H81.2487C81.5143 43.6451 81.7804 43.6828 82.0313 43.7712C82.2822 43.8597 82.513 43.9973 82.7103 44.1759C82.8547 44.3281 82.9672 44.5077 83.0412 44.704C83.1152 44.9004 83.1492 45.1095 83.1413 45.3192C83.152 45.6574 83.0527 45.9901 82.8585 46.2671C82.6642 46.5442 82.3854 46.7509 82.0638 46.8561ZM82.0638 45.3379C82.0638 44.8694 81.7265 44.6257 81.1925 44.6257H80.0588V46.1064H81.1738C81.7172 46.1064 82.0264 45.8159 82.0264 45.3942L82.0638 45.3379ZM87.6853 46.6124H90.0463V45.6659H87.6666V44.6445H90.3555V43.7073H86.6078V48.7303H90.4304V47.6995H87.7134L87.6853 46.6124ZM97.4479 47.1653C97.4479 46.2938 96.867 45.9283 95.8552 45.6566C94.8433 45.3848 94.7683 45.3286 94.7683 45.0006C94.7683 44.7569 94.9932 44.5601 95.4148 44.5601C95.8894 44.5891 96.3438 44.7624 96.7171 45.0568L97.298 44.2228C96.7676 43.7968 96.1042 43.5712 95.4242 43.5855C95.2089 43.5621 94.9911 43.5837 94.7845 43.6488C94.578 43.7139 94.3872 43.8213 94.2243 43.964C94.0614 44.1067 93.9298 44.2816 93.838 44.4778C93.7462 44.674 93.6961 44.8871 93.6909 45.1037C93.6909 46.097 94.3467 46.3781 95.3586 46.6405C96.1924 46.8561 96.3705 46.9966 96.3705 47.2778C96.3705 47.5777 96.0894 47.7557 95.6397 47.7557C95.0826 47.7414 94.5498 47.5249 94.1406 47.1466L93.4941 47.9244C94.0639 48.4351 94.7997 48.7215 95.5647 48.7303C96.6609 48.7303 97.4385 48.1962 97.4385 47.2028L97.4479 47.1653ZM105.749 46.1251C105.749 46.8335 105.468 47.5128 104.967 48.0137C104.466 48.5145 103.787 48.7959 103.079 48.7959C102.371 48.7959 101.691 48.5145 101.191 48.0137C100.69 47.5128 100.409 46.8335 100.409 46.1251C100.409 45.4168 100.69 44.7375 101.191 44.2366C101.691 43.7357 102.371 43.4543 103.079 43.4543C103.787 43.4543 104.466 43.7357 104.967 44.2366C105.468 44.7375 105.749 45.4168 105.749 46.1251ZM104.597 46.1251C104.597 45.9237 104.557 45.7243 104.479 45.5384C104.402 45.3525 104.289 45.1836 104.146 45.0417C104.003 44.8997 103.834 44.7874 103.647 44.7112C103.461 44.635 103.261 44.5964 103.06 44.5976C102.857 44.5961 102.655 44.6361 102.468 44.7149C102.28 44.7938 102.111 44.9099 101.97 45.0563C101.829 45.2027 101.719 45.3763 101.647 45.5664C101.575 45.7566 101.543 45.9595 101.552 46.1626C101.539 46.3698 101.568 46.5775 101.638 46.773C101.708 46.9685 101.816 47.1479 101.957 47.3003C102.098 47.4527 102.269 47.5749 102.458 47.6596C102.648 47.7444 102.852 47.7898 103.06 47.7932C103.263 47.7947 103.465 47.7548 103.652 47.6759C103.84 47.597 104.009 47.4809 104.15 47.3345C104.291 47.1881 104.401 47.0146 104.473 46.8244C104.545 46.6342 104.577 46.4314 104.568 46.2282L104.597 46.1251ZM110.93 47.0622H110.059V48.7303H108.953V43.6605H111.249C111.516 43.6454 111.783 43.6832 112.035 43.7716C112.288 43.8601 112.52 43.9974 112.72 44.1759C113.008 44.4857 113.162 44.8963 113.151 45.3192C113.16 45.6598 113.058 45.9942 112.86 46.2716C112.662 46.549 112.379 46.7542 112.054 46.8561L113.282 48.7303H111.989L110.93 47.0622ZM110.059 46.1251H111.183C111.717 46.1251 112.026 45.8346 112.026 45.4129C112.026 44.9443 111.698 44.7007 111.155 44.7007H110.059V46.1251ZM116.177 44.682H117.704V48.7303H118.809V44.682H120.337V43.6605H116.177V44.682ZM132.938 48.2149L132.123 48.7865L131.542 48.1962C131.134 48.5526 130.613 48.752 130.071 48.7584C129.864 48.7818 129.653 48.762 129.454 48.7004C129.254 48.6388 129.069 48.5366 128.911 48.4002C128.753 48.2639 128.624 48.0963 128.534 47.908C128.443 47.7197 128.392 47.5147 128.385 47.3059C128.381 47.0079 128.468 46.7158 128.636 46.4694C128.804 46.223 129.043 46.0341 129.322 45.9283C129.101 45.6401 128.98 45.2884 128.975 44.9256C128.982 44.737 129.027 44.5518 129.108 44.3815C129.19 44.2112 129.305 44.0593 129.447 43.9354C129.589 43.8116 129.756 43.7182 129.936 43.6613C130.115 43.6043 130.305 43.5849 130.493 43.6043C130.67 43.5889 130.848 43.6099 131.017 43.6661C131.186 43.7222 131.341 43.8124 131.474 43.9309C131.606 44.0494 131.713 44.1938 131.788 44.3552C131.862 44.5166 131.903 44.6916 131.908 44.8694C131.9 45.1752 131.793 45.4702 131.601 45.7089C131.41 45.9476 131.146 46.1169 130.849 46.1907L131.523 46.8561C131.683 46.5937 131.851 46.3032 132.011 45.9939L132.816 46.4344C132.626 46.8071 132.407 47.1643 132.16 47.5027L132.938 48.2149ZM130.043 44.9818C130.056 45.2205 130.16 45.4451 130.334 45.6097C130.774 45.441 130.999 45.2536 130.999 44.935C131.003 44.8724 130.994 44.8096 130.971 44.7509C130.949 44.6922 130.915 44.6388 130.871 44.5945C130.826 44.5501 130.773 44.5157 130.714 44.4936C130.656 44.4716 130.593 44.4623 130.53 44.4664C130.464 44.4635 130.398 44.4748 130.336 44.4995C130.274 44.5242 130.219 44.5617 130.173 44.6095C130.126 44.6574 130.091 44.7145 130.069 44.7771C130.046 44.8396 130.038 44.9062 130.043 44.9725V44.9818ZM130.98 47.587L130.043 46.6499C129.909 46.7013 129.794 46.7908 129.71 46.9075C129.627 47.0241 129.58 47.1627 129.575 47.3059C129.575 47.6526 129.865 47.8869 130.277 47.8869C130.528 47.8558 130.761 47.7439 130.942 47.5683L130.98 47.587ZM144.902 47.1841C144.732 47.3651 144.528 47.5106 144.301 47.6119C144.074 47.7133 143.83 47.7685 143.581 47.7745C143.381 47.7698 143.183 47.7247 143.001 47.6418C142.818 47.5589 142.654 47.4399 142.518 47.292C142.382 47.1441 142.278 46.9703 142.211 46.781C142.144 46.5918 142.117 46.391 142.129 46.1907C142.119 45.9919 142.149 45.7932 142.217 45.6061C142.285 45.4191 142.39 45.2476 142.525 45.1017C142.66 44.9558 142.824 44.8385 143.005 44.7568C143.187 44.675 143.383 44.6305 143.581 44.6257C144.066 44.6401 144.526 44.8416 144.865 45.188L145.568 44.3821C145.312 44.1198 145.004 43.9148 144.663 43.7807C144.322 43.6467 143.957 43.5865 143.591 43.6043C143.247 43.5953 142.904 43.6562 142.584 43.7833C142.264 43.9104 141.974 44.1009 141.729 44.3435C141.485 44.5861 141.292 44.8757 141.163 45.1948C141.034 45.5139 140.97 45.8558 140.977 46.2001C140.977 46.8711 141.243 47.5147 141.718 47.9892C142.192 48.4637 142.836 48.7303 143.506 48.7303C143.895 48.7485 144.283 48.6778 144.64 48.5235C144.997 48.3692 145.314 48.1355 145.568 47.8401L144.902 47.1841ZM152.192 48.7303L151.733 47.6058H149.615L149.156 48.7303H148.032L150.187 43.6792H151.208L153.344 48.7303H152.192ZM151.339 46.6312L150.674 44.9818L150.009 46.6124L151.339 46.6312ZM159.818 47.2497C159.818 46.3781 159.247 46.0127 158.225 45.7409C157.363 45.5254 157.148 45.4129 157.148 45.0849C157.148 44.8413 157.363 44.6445 157.794 44.6445C158.269 44.6752 158.722 44.8483 159.097 45.1411L159.668 44.3071C159.139 43.8797 158.475 43.6539 157.794 43.6699C157.578 43.6437 157.359 43.6629 157.151 43.7262C156.943 43.7895 156.75 43.8955 156.585 44.0375C156.421 44.1795 156.287 44.3543 156.194 44.5508C156.1 44.7473 156.049 44.9611 156.042 45.1786C156.042 46.172 156.689 46.4531 157.701 46.7155C158.544 46.931 158.713 47.0716 158.713 47.3527C158.713 47.6526 158.441 47.8307 157.991 47.8307C157.434 47.8164 156.901 47.5999 156.492 47.2216L155.836 47.9994C156.42 48.5229 157.179 48.8102 157.963 48.8053C159.059 48.7303 159.818 48.1962 159.818 47.2028V47.2497ZM164.503 43.7073H163.397V48.7303H164.503V43.7073ZM171.576 46.7998L169.225 43.7073H168.175V48.7303H169.262V45.5441L171.698 48.7303H172.635V43.6605H171.548L171.576 46.7998ZM97.3074 53.669L98.9657 57.5768H98.0756L97.7196 56.7052H96.08L95.724 57.5768H94.8527L96.5016 53.6221L97.3074 53.669ZM97.4104 55.9555L96.8951 54.6904L96.3798 55.9555H97.4104ZM100.662 54.4842H101.842V57.5768H102.704V54.4842H103.884V53.6971H100.662V54.4842ZM111.52 55.2527C110.855 55.084 110.686 54.9997 110.686 54.7466C110.686 54.5592 110.855 54.4093 111.183 54.4093C111.551 54.435 111.903 54.5687 112.195 54.7935L112.635 54.1563C112.228 53.8261 111.717 53.6503 111.192 53.6596C111.025 53.64 110.855 53.6555 110.694 53.7049C110.533 53.7544 110.384 53.8368 110.256 53.9469C110.128 54.057 110.025 54.1925 109.952 54.3446C109.88 54.4968 109.839 54.6624 109.834 54.831C109.834 55.5994 110.34 55.7681 111.127 56.0211C111.773 56.1804 111.904 56.2929 111.904 56.5084C111.904 56.7427 111.698 56.8739 111.342 56.8739C110.914 56.864 110.504 56.6973 110.19 56.4053L109.684 57.0145C110.14 57.4145 110.726 57.6344 111.333 57.633C112.167 57.633 112.757 57.2019 112.757 56.4335C112.729 55.6931 112.279 55.412 111.492 55.2058L111.52 55.2527ZM117.404 53.669L119.072 57.5768H118.135L117.788 56.7052H116.177L115.83 57.5768H114.959L116.617 53.669H117.404ZM117.517 55.9555L117.001 54.6904L116.486 55.9555H117.517ZM124.15 56.0867L122.332 53.6971H121.545V57.5768H122.388V55.0653L124.262 57.5299H124.993V53.6502H124.15V56.0867ZM133.275 55.337L132.254 53.6971H131.317V57.5768H132.104V55.009L133.191 56.649L134.287 54.9997V57.5299H135.13V53.6502H134.194L133.275 55.337ZM140.143 53.669L141.801 57.5768H140.911L140.555 56.7052H138.916L138.56 57.5768H137.688L139.356 53.669H140.143ZM140.255 55.9555L139.74 54.6904L139.225 55.9555H140.255ZM146.889 56.0867L145.071 53.6971H144.284V57.5768H145.127V55.0653L147.001 57.5299H147.732V53.6502H146.889V56.0867ZM152.997 55.918C152.997 56.5365 152.688 56.8552 152.164 56.8552C151.639 56.8552 151.33 56.5365 151.33 55.918V53.6502H150.477V55.8618C150.448 56.0912 150.471 56.3242 150.544 56.5435C150.617 56.7628 150.739 56.9628 150.9 57.1285C151.061 57.2943 151.258 57.4215 151.475 57.5007C151.692 57.58 151.924 57.6091 152.154 57.5861C152.387 57.6088 152.622 57.5789 152.842 57.4988C153.061 57.4187 153.26 57.2902 153.424 57.123C153.588 56.9558 153.712 56.754 153.787 56.5325C153.862 56.311 153.887 56.0754 153.859 55.8431V53.6502H152.997V55.918ZM157.448 56.0024H159.275V55.1965H157.401V54.4093H159.481V53.6502H156.558V57.5299H159.509V56.7708H157.401L157.448 56.0024ZM163.247 53.6971H162.395V57.5768H165.205V56.7989H163.275L163.247 53.6971ZM180.739 46.2001C180.739 46.9084 180.458 47.5878 179.957 48.0886C179.456 48.5895 178.777 48.8709 178.069 48.8709C177.361 48.8709 176.682 48.5895 176.181 48.0886C175.68 47.5878 175.399 46.9084 175.399 46.2001C175.399 45.4918 175.68 44.8124 176.181 44.3116C176.682 43.8107 177.361 43.5293 178.069 43.5293C178.777 43.5293 179.456 43.8107 179.957 44.3116C180.458 44.8124 180.739 45.4918 180.739 46.2001ZM179.578 46.2001C179.589 45.9897 179.557 45.7792 179.483 45.582C179.409 45.3847 179.295 45.205 179.148 45.0542C179.001 44.9035 178.824 44.7851 178.629 44.7065C178.433 44.6278 178.223 44.5908 178.013 44.5976C177.81 44.5961 177.608 44.6361 177.421 44.7149C177.233 44.7938 177.064 44.9099 176.923 45.0563C176.782 45.2027 176.672 45.3763 176.6 45.5664C176.528 45.7566 176.496 45.9595 176.505 46.1626C176.492 46.3698 176.521 46.5775 176.591 46.773C176.661 46.9685 176.769 47.1479 176.91 47.3003C177.051 47.4527 177.222 47.5749 177.411 47.6596C177.601 47.7444 177.805 47.7898 178.013 47.7932C178.215 47.7934 178.416 47.7525 178.602 47.6731C178.788 47.5937 178.957 47.4774 179.097 47.3311C179.237 47.1848 179.346 47.0117 179.417 46.8222C179.489 46.6326 179.521 46.4306 179.512 46.2282L179.578 46.2001Z" fill="#495024"/>
<defs>
<linearGradient id="paint0_linear" x1="33.1667" y1="0" x2="33.1667" y2="62" gradientUnits="userSpaceOnUse">
<stop stop-color="#C0CFA0"/>
<stop offset="0.13" stop-color="#B9CC9A"/>
<stop offset="0.33" stop-color="#A4C489"/>
<stop offset="0.58" stop-color="#83B86E"/>
<stop offset="0.85" stop-color="#55A649"/>
<stop offset="0.87" stop-color="#51A546"/>
</linearGradient>
</defs>
</svg>
